<svg width="200" height="200" viewBox="0 0 200 200" fill="none" xmlns="http://www.w3.org/2000/svg">
<g clip-path="url(#clip0_1_71)">
<g filter="url(#filter0_d_1_71)">
<rect width="200" height="200" rx="46" fill="#8A63D2"/>
<rect width="200" height="200" rx="46" fill="url(#paint0_linear_1_71)" fill-opacity="0.5"/>
</g>
<g filter="url(#filter1_ddd_1_71)">
<path d="M161.85 159.293H169.261C171.991 159.293 174.202 161.504 174.202 164.234V169.175H124.792V164.234C124.792 161.504 127.003 159.293 129.733 159.293H156.909H161.85Z" fill="#FEFEFE"/>
<path d="M169.261 159.293V154.352C169.261 151.622 167.05 149.411 164.32 149.411H134.674C131.944 149.411 129.733 151.622 129.733 154.352V159.293H169.261Z" fill="#FEFEFE"/>
<path d="M149.497 30.8252H50.6761V50.5895H149.497V30.8252Z" fill="#FEFEFE"/>
<path d="M149.497 45.6484H50.6761V50.5895H149.497V45.6484Z" fill="#FEFEFE"/>
<path d="M169.261 70.3537H30.9119L25.9709 50.5895H174.202L169.261 70.3537Z" fill="#FEFEFE"/>
<path d="M164.32 70.3537H134.674V149.411H164.32V70.3537Z" fill="#FEFEFE"/>
<path d="M63.0288 159.293H70.4404C73.1703 159.293 75.3814 161.504 75.3814 164.234V169.175H25.9709V164.234C25.9709 161.504 28.182 159.293 30.9119 159.293H58.0877H63.0288Z" fill="#FEFEFE"/>
<path d="M70.4404 159.293V154.352C70.4404 151.622 68.2292 149.411 65.4993 149.411H35.853C33.1231 149.411 30.9119 151.622 30.9119 154.352V159.293H70.4404Z" fill="#FEFEFE"/>
<path d="M65.4993 70.3537H35.853V149.411H65.4993V70.3537Z" fill="#FEFEFE"/>
<path d="M65.4993 109.487C65.4993 90.3847 80.9846 74.8994 100.087 74.8994C119.189 74.8994 134.674 90.3847 134.674 109.487V60.0763H65.4993V109.487Z" fill="#FEFEFE"/>
</g>
</g>
<defs>
<filter id="filter0_d_1_71" x="-1" y="0" width="202" height="202" filterUnits="userSpaceOnUse" color-interpolation-filters="sRGB">
<feFlood flood-opacity="0" result="BackgroundImageFix"/>
<feColorMatrix in="SourceAlpha" type="matrix" values="0 0 0 0 0 0 0 0 0 0 0 0 0 0 0 0 0 0 127 0" result="hardAlpha"/>
<feOffset dy="1"/>
<feGaussianBlur stdDeviation="0.5"/>
<feColorMatrix type="matrix" values="0 0 0 0 0 0 0 0 0 0 0 0 0 0 0 0 0 0 0.25 0"/>
<feBlend mode="normal" in2="BackgroundImageFix" result="effect1_dropShadow_1_71"/>
<feBlend mode="normal" in="SourceGraphic" in2="effect1_dropShadow_1_71" result="shape"/>
</filter>
<filter id="filter1_ddd_1_71" x="24.9709" y="29.8252" width="156.232" height="146.35" filterUnits="userSpaceOnUse" color-interpolation-filters="sRGB">
<feFlood flood-opacity="0" result="BackgroundImageFix"/>
<feColorMatrix in="SourceAlpha" type="matrix" values="0 0 0 0 0 0 0 0 0 0 0 0 0 0 0 0 0 0 127 0" result="hardAlpha"/>
<feOffset dx="3" dy="3"/>
<feGaussianBlur stdDeviation="2"/>
<feColorMatrix type="matrix" values="0 0 0 0 0 0 0 0 0 0 0 0 0 0 0 0 0 0 0.06 0"/>
<feBlend mode="normal" in2="BackgroundImageFix" result="effect1_dropShadow_1_71"/>
<feColorMatrix in="SourceAlpha" type="matrix" values="0 0 0 0 0 0 0 0 0 0 0 0 0 0 0 0 0 0 127 0" result="hardAlpha"/>
<feOffset dx="1.5" dy="1.5"/>
<feGaussianBlur stdDeviation="1"/>
<feColorMatrix type="matrix" values="0 0 0 0 0 0 0 0 0 0 0 0 0 0 0 0 0 0 0.12 0"/>
<feBlend mode="normal" in2="effect1_dropShadow_1_71" result="effect2_dropShadow_1_71"/>
<feColorMatrix in="SourceAlpha" type="matrix" values="0 0 0 0 0 0 0 0 0 0 0 0 0 0 0 0 0 0 127 0" result="hardAlpha"/>
<feOffset dy="1"/>
<feGaussianBlur stdDeviation="0.5"/>
<feColorMatrix type="matrix" values="0 0 0 0 0 0 0 0 0 0 0 0 0 0 0 0 0 0 0.25 0"/>
<feBlend mode="normal" in2="effect2_dropShadow_1_71" result="effect3_dropShadow_1_71"/>
<feBlend mode="normal" in="SourceGraphic" in2="effect3_dropShadow_1_71" result="shape"/>
</filter>
<linearGradient id="paint0_linear_1_71" x1="100" y1="0" x2="100" y2="200" gradientUnits="userSpaceOnUse">
<stop stop-opacity="0"/>
<stop offset="1" stop-opacity="0.2"/>
</linearGradient>
<clipPath id="clip0_1_71">
<rect width="200" height="200" fill="white"/>
</clipPath>
</defs>
</svg>
